  <svg
      xmlns="http://www.w3.org/2000/svg"
      width="152"
      height="50"
      viewBox="0 0 152 50"
      fill="none"
      className="xl:w-auto lg:w-[130px]"
    >
      <path
        d="M94.931 2.33838C95.1584 2.33838 95.3527 2.25807 95.5133 2.097C95.6744 1.93594 95.7551 1.7417 95.7551 1.5143C95.7551 1.29343 95.6744 1.10225 95.5133 0.941191C95.3527 0.780128 95.1584 0.699815 94.931 0.699815C94.7036 0.699815 94.5094 0.780128 94.3483 0.941191C94.1872 1.10225 94.1069 1.29343 94.1069 1.5143C94.1069 1.7417 94.1872 1.93594 94.3483 2.097C94.5094 2.25807 94.7036 2.33838 94.931 2.33838Z"
        fill="#112130"
      />
      <path
        d="M92.8852 2.33838C93.1126 2.33838 93.3069 2.25807 93.4675 2.097C93.629 1.93594 93.7093 1.7417 93.7093 1.5143C93.7093 1.29343 93.629 1.10225 93.4675 0.941191C93.3069 0.780128 93.1126 0.699815 92.8852 0.699815C92.6578 0.699815 92.4636 0.780128 92.303 0.941191C92.1415 1.10225 92.0612 1.29343 92.0612 1.5143C92.0612 1.7417 92.1415 1.93594 92.303 2.097C92.4636 2.25807 92.6578 2.33838 92.8852 2.33838Z"
        fill="#112130"
      />
      <path
        d="M99.743 3.1626C99.9704 3.1626 100.165 3.08228 100.326 2.92122C100.487 2.76016 100.567 2.56592 100.567 2.33851C100.567 2.11765 100.487 1.92647 100.326 1.76541C100.165 1.60435 99.9704 1.52403 99.743 1.52403C99.5156 1.52403 99.3214 1.60435 99.1608 1.76541C98.9997 1.92647 98.9189 2.11765 98.9189 2.33851C98.9189 2.56592 98.9997 2.76016 99.1608 2.92122C99.3214 3.08228 99.5156 3.1626 99.743 3.1626Z"
        fill="#112130"
      />
      <path
        d="M97.6971 3.1626C97.9245 3.1626 98.1187 3.08228 98.2798 2.92122C98.4408 2.76016 98.5212 2.56592 98.5212 2.33851C98.5212 2.11765 98.4408 1.92647 98.2798 1.76541C98.1187 1.60435 97.9245 1.52403 97.6971 1.52403C97.4697 1.52403 97.2754 1.60435 97.1148 1.76541C96.9537 1.92647 96.873 2.11765 96.873 2.33851C96.873 2.56592 96.9537 2.76016 97.1148 2.92122C97.2754 3.08228 97.4697 3.1626 97.6971 3.1626Z"
        fill="#112130"
      />
      <path
        d="M92.9514 5.54906C92.9514 5.29023 93.0426 5.06937 93.2259 4.88604C93.4093 4.70272 93.6271 4.61106 93.8798 4.61106C94.1068 4.61106 94.301 4.69355 94.4621 4.85767C94.6231 5.02179 94.7039 5.21472 94.7039 5.43558V6.26883C94.7039 6.31335 94.6895 6.34958 94.6611 6.37795C94.6327 6.40632 94.5996 6.42029 94.5616 6.42029H93.8798C93.6271 6.42029 93.4093 6.34478 93.2259 6.19331C93.0426 6.04142 92.9514 5.84587 92.9514 5.60581V5.54906ZM105.578 4.63026H106.487C106.771 4.63026 107.006 4.71538 107.193 4.88604C107.379 5.05627 107.472 5.27451 107.472 5.53946V5.57743C107.466 5.81139 107.369 6.00999 107.183 6.17411C106.997 6.33866 106.781 6.42029 106.534 6.42029C106.269 6.42029 106.046 6.34958 105.867 6.20728C105.687 6.06542 105.59 5.87119 105.578 5.62501V4.63026ZM77.6351 9.77336C78.0515 10.02 78.5064 10.1431 78.9987 10.1431H81.8407C82.2003 10.1431 82.5351 10.0532 82.8446 9.87288C83.1536 9.69305 83.3998 9.44818 83.5831 9.13871C83.7664 8.82968 83.8581 8.49184 83.8581 8.12563C83.8581 8.01171 83.8516 7.9266 83.8389 7.86985C83.9485 7.88338 84.0401 7.89037 84.123 7.8943V7.89822H96.7213H96.7973H97.6497C98.098 7.89822 98.5017 7.74982 98.8618 7.45301C99.2534 7.74982 99.6859 7.89822 100.159 7.89822H100.623C100.625 7.89822 100.627 7.89779 100.628 7.89779C100.63 7.89779 100.631 7.89822 100.634 7.89822H101.003C101.451 7.89822 101.855 7.74982 102.215 7.45301C102.606 7.74982 103.039 7.89822 103.513 7.89822H103.569H103.664H103.844C104.072 7.89822 104.29 7.85545 104.498 7.77033C104.706 7.68522 104.892 7.56039 105.056 7.39627C105.492 7.73105 105.985 7.89822 106.534 7.89822C106.951 7.89822 107.341 7.79871 107.704 7.59967C108.067 7.40063 108.361 7.12958 108.585 6.78519C108.809 6.44124 108.925 6.06368 108.931 5.65338V5.60581C108.931 5.14488 108.827 4.72847 108.618 4.35571C108.41 3.98296 108.124 3.69095 107.761 3.47925C107.398 3.26799 106.989 3.16193 106.534 3.16193H104.09V6.17411C104.09 6.26883 104.076 6.33386 104.048 6.36835C104.019 6.40326 103.952 6.42029 103.844 6.42029H103.674H103.579H103.513C103.355 6.42029 103.216 6.36835 103.096 6.26403C102.976 6.16014 102.9 6.03225 102.869 5.88036V1.26758H101.382V5.87119C101.382 6.02265 101.328 6.15229 101.221 6.25966C101.113 6.3666 100.984 6.42029 100.832 6.42029H100.634H100.159C100.001 6.42029 99.8627 6.36835 99.7427 6.26403C99.6226 6.16014 99.5471 6.03225 99.5157 5.88036V4.1091H98.0286V5.87119C98.0286 6.02265 97.9745 6.15229 97.8675 6.25966C97.7601 6.3666 97.6305 6.42029 97.479 6.42029H96.7973H96.7213H96.0583C96.1338 6.31335 96.1718 6.17105 96.1718 5.99428V5.43558C96.1718 5.01873 96.0679 4.63332 95.8592 4.27977C95.651 3.92621 95.3717 3.64686 95.0212 3.44171C94.6707 3.23657 94.287 3.13356 93.8702 3.13356C93.4533 3.13356 93.0636 3.23788 92.7004 3.44652C92.3373 3.65472 92.0466 3.93407 91.8292 4.28457C91.6109 4.63506 91.5023 5.01873 91.5023 5.43558V5.54906C91.5023 5.88385 91.5559 6.17411 91.6633 6.42029H84.2178C83.8516 6.42029 83.5124 6.39366 83.1994 6.33997C82.8869 6.28629 82.5731 6.20248 82.2571 6.08899C82.1624 6.05102 82.096 6.02265 82.058 6.00388L80.931 5.52069L80.2776 6.8655L81.9354 7.54773C82.0737 7.5857 82.1829 7.65641 82.2619 7.76073C82.3409 7.86505 82.3802 7.98639 82.3802 8.12563C82.3802 8.27055 82.3265 8.39713 82.2195 8.50407C82.1117 8.61144 81.9856 8.66557 81.8407 8.66557H78.9987C78.7717 8.66557 78.5614 8.61013 78.3689 8.4997C78.1764 8.38927 78.0245 8.23737 77.914 8.04488C77.8036 7.85239 77.7486 7.64244 77.7486 7.41504V5.53029H76.2711V7.41504C76.2711 7.90739 76.3942 8.36221 76.6404 8.77905C76.8866 9.19589 77.2183 9.52719 77.6351 9.77336Z"
        fill="#112130"
      />
      <path
        d="M5.12584 30.8432C5.35281 30.6158 5.46674 30.3421 5.46674 30.0213C5.46674 29.7092 5.35281 29.4399 5.12584 29.2125C4.89887 28.9855 4.62476 28.8716 4.30394 28.8716C3.98312 28.8716 3.70945 28.9855 3.48204 29.2125C3.25463 29.4399 3.14114 29.7092 3.14114 30.0213C3.14114 30.3421 3.25463 30.6158 3.48204 30.8432C3.70945 31.0706 3.98312 31.1841 4.30394 31.1841C4.62476 31.1841 4.89887 31.0706 5.12584 30.8432Z"
        fill="#112130"
      />
      <path
        d="M8.01283 30.8432C8.24024 30.6158 8.35373 30.3421 8.35373 30.0213C8.35373 29.7092 8.24024 29.4399 8.01283 29.2125C7.78586 28.9855 7.51175 28.8716 7.19093 28.8716C6.87012 28.8716 6.59644 28.9855 6.36903 29.2125C6.14162 29.4399 6.02814 29.7092 6.02814 30.0213C6.02814 30.3421 6.14162 30.6158 6.36903 30.8432C6.59644 31.0706 6.87012 31.1841 7.19093 31.1841C7.51175 31.1841 7.78586 31.0706 8.01283 30.8432Z"
        fill="#112130"
      />
      <path
        d="M43.3844 22.6165C43.3844 22.6789 43.3643 22.73 43.3242 22.7701C43.284 22.8103 43.2373 22.8303 43.1841 22.8303H42.2216C41.8829 22.8303 41.5843 22.7125 41.3264 22.4759C41.0676 22.2402 40.9296 21.9482 40.9117 21.6008V21.5205C40.9117 21.1551 41.0409 20.8435 41.2993 20.5851C41.5577 20.3267 41.865 20.1975 42.2216 20.1975H43.3844V22.6165ZM35.4452 21.5737C35.4452 21.9395 35.3182 22.2402 35.0641 22.4759C34.8105 22.7125 34.4605 22.8303 34.0153 22.8303C33.6853 22.8303 33.3959 22.7147 33.1467 22.4829C32.897 22.2511 32.7722 21.9705 32.7722 21.6409V20.3175H34.0153C34.4339 20.3175 34.7704 20.4201 35.0244 20.6252C35.2785 20.8299 35.4186 21.1106 35.4452 21.4672V21.5737ZM45.0618 24.5143C45.3246 24.2472 45.456 23.9264 45.456 23.5519V18.2324H42.2081C41.611 18.2324 41.0566 18.3686 40.5442 18.6405C40.0318 18.912 39.6241 19.2861 39.3216 19.7632C39.0183 20.2398 38.8668 20.7723 38.8668 21.3603V21.5205C38.8668 22.0464 38.9427 22.4829 39.0942 22.8303H38.2919H37.9847H37.8913C37.793 22.8303 37.7105 22.7946 37.6442 22.7234C37.577 22.6518 37.5434 22.5676 37.5434 22.4694V21.4266C37.5259 20.8478 37.3631 20.3131 37.0558 19.823C36.7485 19.3332 36.3426 18.9456 35.8393 18.6602C35.3361 18.3751 34.79 18.2324 34.2021 18.2324H30.6604V22.4694C30.6604 22.6029 30.6338 22.6968 30.5801 22.75C30.5269 22.8033 30.4374 22.8303 30.313 22.8303H30.0856C29.5692 22.8303 10.2181 22.7924 9.77682 22.7169C9.33597 22.6409 8.8925 22.5226 8.44729 22.3624C8.31373 22.3087 8.21988 22.2686 8.16663 22.2424L6.57608 21.5606L5.65379 23.4585L7.99247 24.4205C8.18845 24.4742 8.34253 24.5745 8.45384 24.7216C8.56514 24.8687 8.62101 25.0398 8.62101 25.2363C8.62101 25.441 8.54506 25.6191 8.3936 25.7705C8.24214 25.922 8.06406 25.9979 7.85891 25.9979H3.84936C3.52854 25.9979 3.23261 25.9198 2.96068 25.764C2.68875 25.6081 2.47487 25.3938 2.31904 25.1223C2.16322 24.8508 2.08509 24.5545 2.08509 24.2336V21.5737H0V24.2336C0 24.9285 0.174158 25.5702 0.521163 26.1581C0.869042 26.7465 1.33695 27.214 1.9249 27.5614C2.51284 27.9089 3.15448 28.083 3.84936 28.083H7.85891C8.36698 28.083 8.83926 27.956 9.27574 27.702C9.71222 27.4479 10.0597 27.1027 10.3185 26.6662C10.5769 26.2297 10.7061 25.7526 10.7061 25.2363C10.7061 25.0756 10.6969 24.9552 10.679 24.8753C10.6939 24.877 10.7057 24.8779 10.7201 24.8796C10.7969 24.8989 10.8759 24.9128 10.9597 24.915H30.313C30.9634 24.915 31.5295 24.6837 32.0105 24.2201C32.3221 24.4611 32.6521 24.637 32.9996 24.7483C33.347 24.86 33.7477 24.915 34.2021 24.915C34.9506 24.915 35.6189 24.6837 36.2069 24.2201C36.4207 24.4432 36.6726 24.6147 36.9624 24.7347C37.2518 24.8552 37.5613 24.915 37.8913 24.915H37.9847H38.2919H44.1059C44.4804 24.915 44.7991 24.7814 45.0618 24.5143Z"
        fill="#112130"
      />
      <path
        d="M44.2395 17.0698C44.5603 17.0698 44.834 16.9563 45.0614 16.7289C45.2888 16.502 45.4023 16.2278 45.4023 15.907C45.4023 15.5954 45.2888 15.3256 45.0614 15.0987C44.834 14.8712 44.5603 14.7578 44.2395 14.7578C43.9187 14.7578 43.645 14.8712 43.4176 15.0987C43.1906 15.3256 43.0767 15.5954 43.0767 15.907C43.0767 16.2278 43.1906 16.502 43.4176 16.7289C43.645 16.9563 43.9187 17.0698 44.2395 17.0698Z"
        fill="#112130"
      />
      <path
        d="M41.353 17.0698C41.6738 17.0698 41.9479 16.9563 42.1753 16.7289C42.4023 16.502 42.5158 16.2278 42.5158 15.907C42.5158 15.5954 42.4023 15.3256 42.1753 15.0987C41.9479 14.8712 41.6738 14.7578 41.353 14.7578C41.0322 14.7578 40.7585 14.8712 40.5311 15.0987C40.3041 15.3256 40.1902 15.5954 40.1902 15.907C40.1902 16.2278 40.3041 16.502 40.5311 16.7289C40.7585 16.9563 41.0322 17.0698 41.353 17.0698Z"
        fill="#112130"
      />
      <path
        d="M49.0112 27.0205C49.5633 26.4727 49.8841 25.7709 49.9736 24.9154L49.9867 24.7683C50.2984 24.8669 50.6017 24.9154 50.8955 24.9154H51.1897H51.2433H51.7776C52.2141 24.9154 52.6196 24.8067 52.9936 24.588C53.3681 24.3702 53.6641 24.0734 53.8828 23.6993C54.101 23.3253 54.2101 22.9198 54.2101 22.4833V15.5598H52.125V22.4833C52.125 22.5723 52.0919 22.6522 52.0246 22.7238C51.9583 22.7949 51.8758 22.8307 51.7776 22.8307H51.2433H51.1897H50.8955C50.655 22.8307 50.4454 22.7417 50.2674 22.5632C50.0888 22.3851 50.0002 22.1756 50.0002 21.9351V18.2328H47.9282V24.4208C47.9282 24.9555 47.7659 25.3453 47.4407 25.5906C47.1151 25.8355 46.6096 26.0249 45.9235 26.1585L46.6856 28.1235C47.6834 27.9363 48.4586 27.5688 49.0112 27.0205Z"
        fill="#112130"
      />
      <path
        d="M58.434 15.5599H56.3489V24.9155H58.434V15.5599Z"
        fill="#112130"
      />
      <path
        d="M68.9788 24.7816C68.9788 24.9597 68.9164 25.1111 68.792 25.236C68.6667 25.3608 68.5153 25.4232 68.3372 25.4232H66.5463C66.2342 25.4232 65.9448 25.3451 65.6777 25.1893C65.4105 25.033 65.1984 24.8217 65.0426 24.5546C64.8868 24.287 64.8091 23.9977 64.8091 23.6856V21.1727H62.7104V23.6856C62.7104 24.3809 62.882 25.0199 63.2251 25.6035C63.5681 26.1871 64.0339 26.6506 64.6218 26.9937C65.2098 27.3363 65.8514 27.5083 66.5463 27.5083H68.7518C69.1704 27.5083 69.5558 27.4031 69.9076 27.194C70.2595 26.9845 70.5406 26.7039 70.7496 26.3521C70.9587 26.0002 71.0639 25.6148 71.0639 25.1958V15.5731L68.9788 15.546V24.7816Z"
        fill="#112130"
      />
      <path
        d="M96.7985 16.2617C96.5711 16.4887 96.4576 16.7585 96.4576 17.0701C96.4576 17.3909 96.5711 17.665 96.7985 17.8925C97.0255 18.1194 97.2996 18.2329 97.6204 18.2329C97.9413 18.2329 98.2149 18.1194 98.4423 17.8925C98.6697 17.665 98.7832 17.3909 98.7832 17.0701C98.7832 16.7585 98.6697 16.4887 98.4423 16.2617C98.2149 16.0348 97.9413 15.9208 97.6204 15.9208C97.2996 15.9208 97.0255 16.0348 96.7985 16.2617Z"
        fill="#112130"
      />
      <path
        d="M99.6855 16.2617C99.4585 16.4887 99.3446 16.7585 99.3446 17.0701C99.3446 17.3909 99.4585 17.665 99.6855 17.8925C99.9129 18.1194 100.187 18.2329 100.507 18.2329C100.828 18.2329 101.102 18.1194 101.329 17.8925C101.557 17.665 101.67 17.3909 101.67 17.0701C101.67 16.7585 101.557 16.4887 101.329 16.2617C101.102 16.0348 100.828 15.9208 100.507 15.9208C100.187 15.9208 99.9129 16.0348 99.6855 16.2617Z"
        fill="#112130"
      />
      <path
        d="M106.869 24.9155H108.954V15.5599H106.869V24.9155Z"
        fill="#112130"
      />
      <path
        d="M74.7264 20.6651C74.9848 20.4333 75.2921 20.3176 75.6487 20.3176H76.7848V22.8305H75.6487C75.2921 22.8305 74.9848 22.7034 74.7264 22.4494C74.468 22.1954 74.3388 21.8859 74.3388 21.5206C74.3388 21.1819 74.468 20.8968 74.7264 20.6651ZM73.9577 24.4607C74.4793 24.7637 75.0428 24.9151 75.6487 24.9151H76.7311L76.7045 24.9823C76.6329 25.1779 76.5395 25.325 76.4239 25.4232C76.2187 25.6104 75.9826 25.7484 75.7154 25.8374C75.4479 25.9264 75.1074 25.9867 74.6928 26.0177C74.2785 26.0491 73.6928 26.0648 72.9355 26.0648V28.1233C73.8979 28.132 74.6618 28.1076 75.2275 28.0495C75.7936 27.9915 76.2768 27.878 76.6779 27.7086C77.0786 27.5393 77.4575 27.2852 77.8136 26.947C78.402 26.4123 78.7494 25.7353 78.8564 24.9151H88.0514H88.1985H96.2442H96.5249H97.5541C98.1866 24.9151 98.757 24.706 99.2651 24.287C99.8173 24.706 100.427 24.9151 101.096 24.9151H101.711H101.751H102.299C102.735 24.9151 103.141 24.8064 103.515 24.5878C103.889 24.3699 104.186 24.0731 104.404 23.6991C104.622 23.325 104.731 22.9195 104.731 22.483V15.5595H102.647V22.483C102.647 22.5721 102.613 22.6519 102.546 22.7235C102.479 22.7947 102.397 22.8305 102.299 22.8305H101.764H101.711H101.096C100.873 22.8305 100.677 22.7571 100.508 22.61C100.338 22.4629 100.231 22.2822 100.187 22.0684V19.569H98.0888V22.0553C98.0888 22.2687 98.0128 22.4516 97.8614 22.6031C97.7099 22.7545 97.5275 22.8305 97.3131 22.8305H96.5249H96.2442H95.5358C95.304 22.8305 95.1883 22.6965 95.1883 22.4293V22.1888C95.1883 21.4136 95.0482 20.7698 94.7676 20.2578C94.4865 19.7454 94.146 19.3421 93.7449 19.0479C93.005 18.4687 92.1277 18.1793 91.112 18.1793C90.8733 18.1793 81.8315 18.1985 81.5827 18.2334V20.3499C81.8406 20.3045 90.8842 20.2775 91.112 20.2775C91.6821 20.2775 92.1412 20.4158 92.4887 20.6917C92.9343 21.0217 93.1569 21.5607 93.1569 22.3089V22.4429C93.1569 22.6122 93.2281 22.7414 93.3708 22.8305H88.1985H88.0514H78.883V18.2325H75.6487C75.0428 18.2325 74.4793 18.3796 73.9577 18.6738C73.4366 18.9676 73.0245 19.3665 72.7216 19.8698C72.4187 20.3735 72.2672 20.9235 72.2672 21.5206C72.2672 22.1356 72.4187 22.7034 72.7216 23.2246C73.0245 23.7458 73.4366 24.1582 73.9577 24.4607Z"
        fill="#112130"
      />
      <path
        d="M4.31725 47.4341C3.99643 47.4341 3.72275 47.548 3.49534 47.775C3.26794 48.0024 3.15445 48.2717 3.15445 48.5833C3.15445 48.9046 3.26794 49.1783 3.49534 49.4057C3.72275 49.6327 3.99643 49.7466 4.31725 49.7466C4.63806 49.7466 4.91174 49.6327 5.13915 49.4057C5.36612 49.1783 5.48004 48.9046 5.48004 48.5833C5.48004 48.2717 5.36612 48.0024 5.13915 47.775C4.91174 47.548 4.63806 47.4341 4.31725 47.4341Z"
        fill="#112130"
      />
      <path
        d="M7.20421 47.4341C6.88339 47.4341 6.60972 47.548 6.38231 47.775C6.1549 48.0024 6.04141 48.2717 6.04141 48.5833C6.04141 48.9046 6.1549 49.1783 6.38231 49.4057C6.60972 49.6327 6.88339 49.7466 7.20421 49.7466C7.52502 49.7466 7.7987 49.6327 8.02611 49.4057C8.25308 49.1783 8.367 48.9046 8.367 48.5833C8.367 48.2717 8.25308 48.0024 8.02611 47.775C7.7987 47.548 7.52502 47.4341 7.20421 47.4341Z"
        fill="#112130"
      />
      <path
        d="M21.0772 44.3735C20.7564 44.3735 20.4823 44.487 20.2553 44.7144C20.0279 44.9418 19.9144 45.2107 19.9144 45.5232C19.9144 45.8436 20.0279 46.1177 20.2553 46.3447C20.4823 46.5721 20.7564 46.686 21.0772 46.686C21.398 46.686 21.6717 46.5721 21.8991 46.3447C22.1261 46.1177 22.24 45.8436 22.24 45.5232C22.24 45.2107 22.1261 44.9418 21.8991 44.7144C21.6717 44.487 21.398 44.3735 21.0772 44.3735Z"
        fill="#112130"
      />
      <path
        d="M21.1575 41.0319C21.1575 41.1388 21.1239 41.2257 21.0571 41.2925C20.9903 41.3592 20.9034 41.3928 20.7965 41.3928H19.687H19.3666H18.6979C18.4661 41.3928 18.3504 41.2588 18.3504 40.9917V40.7512C18.3504 39.976 18.2103 39.3322 17.9297 38.8198C17.649 38.3078 17.3081 37.9045 16.9074 37.6103C16.1676 37.0311 15.2902 36.7417 14.2741 36.7417C13.4723 36.7417 12.6124 36.9376 11.6945 37.3296L12.4566 39.2008C13.1427 38.9603 13.7481 38.8398 14.2741 38.8398C14.8442 38.8398 15.3033 38.9782 15.6508 39.2541C16.096 39.5841 16.319 40.1231 16.319 40.8712V41.0052C16.319 41.1746 16.3902 41.3038 16.5329 41.3928H11.227C10.7102 41.3928 10.231 41.3549 9.7901 41.2789C9.34925 41.2034 8.90578 41.0851 8.46057 40.9249C8.32657 40.8712 8.23316 40.8311 8.17947 40.8049L6.58936 40.1231L5.66707 42.021L8.00575 42.983C8.20173 43.0367 8.35538 43.137 8.46712 43.2841C8.57842 43.4312 8.63385 43.6023 8.63385 43.7988C8.63385 44.0035 8.55834 44.1816 8.40688 44.333C8.25498 44.4845 8.07733 44.5604 7.87219 44.5604H3.86264C3.54182 44.5604 3.24545 44.4823 2.97395 44.3265C2.70202 44.1706 2.48814 43.9563 2.33232 43.6848C2.17606 43.4133 2.09836 43.117 2.09836 42.7961V40.1362H0.0132751V42.7961C0.0132751 43.491 0.186996 44.1327 0.534438 44.7206C0.88188 45.309 1.34979 45.7765 1.93817 46.1239C2.52612 46.4714 3.16775 46.6455 3.86264 46.6455H7.87219C8.38025 46.6455 8.85253 46.5185 9.28902 46.2645C9.7255 46.0104 10.0729 45.6652 10.3318 45.2287C10.5897 44.7918 10.7194 44.3151 10.7194 43.7988C10.7194 43.6381 10.7102 43.5177 10.6923 43.4378C10.8953 43.4631 11.0638 43.4753 11.2026 43.4766C11.2061 43.4766 11.2095 43.4775 11.2135 43.4775H19.3666H19.687H20.7834C21.2286 43.4775 21.6407 43.3662 22.0195 43.1436C22.398 42.921 22.6965 42.6224 22.9152 42.2479C23.133 41.8739 23.2426 41.4684 23.2426 41.0319V36.7949H21.1575V41.0319Z"
        fill="#112130"
      />
      <path
        d="M29.7779 41.0458C29.7779 41.1348 29.7447 41.2151 29.6779 41.2863C29.6111 41.3579 29.5286 41.3932 29.4304 41.3932H28.8962H28.8425H28.5483C28.3078 41.3932 28.0983 41.3042 27.9202 41.1261C27.7417 40.9476 27.6531 40.7381 27.6531 40.4976V36.7957H25.5811V42.9838C25.5811 43.5185 25.4187 43.9078 25.0935 44.1531C24.7679 44.398 24.2624 44.5874 23.5763 44.721L24.3384 46.686C25.3362 46.4988 26.1114 46.1313 26.664 45.583C27.2161 45.0352 27.537 44.3334 27.6264 43.4783L27.6395 43.3312C27.9512 43.4294 28.2545 43.4783 28.5483 43.4783H28.8425H28.8962H29.4304C29.8669 43.4783 30.2724 43.3692 30.6465 43.1509C31.021 42.9327 31.3169 42.6363 31.5356 42.2618C31.7538 41.8878 31.863 41.4823 31.863 41.0458V34.1223H29.7779V41.0458Z"
        fill="#112130"
      />
      <path
        d="M34.0013 43.4775H36.0864V34.1219H34.0013V43.4775Z"
        fill="#112130"
      />
      <path
        d="M46.3512 44.3735C46.0304 44.3735 45.7567 44.487 45.5293 44.7144C45.3019 44.9418 45.1884 45.2107 45.1884 45.5232C45.1884 45.8436 45.3019 46.1177 45.5293 46.3447C45.7567 46.5721 46.0304 46.686 46.3512 46.686C46.672 46.686 46.9457 46.5721 47.1731 46.3447C47.4001 46.1177 47.514 45.8436 47.514 45.5232C47.514 45.2107 47.4001 44.9418 47.1731 44.7144C46.9457 44.487 46.672 44.3735 46.3512 44.3735Z"
        fill="#112130"
      />
      <path
        d="M49.2382 44.3735C48.9174 44.3735 48.6432 44.487 48.4163 44.7144C48.1889 44.9418 48.0754 45.2107 48.0754 45.5232C48.0754 45.8436 48.1889 46.1177 48.4163 46.3447C48.6432 46.5721 48.9174 46.686 49.2382 46.686C49.559 46.686 49.8327 46.5721 50.0601 46.3447C50.287 46.1177 50.401 45.8436 50.401 45.5232C50.401 45.2107 50.287 44.9418 50.0601 44.7144C49.8327 44.487 49.559 44.3735 49.2382 44.3735Z"
        fill="#112130"
      />
      <path
        d="M53.6886 34.4695C53.6886 34.7903 53.8021 35.064 54.0295 35.2914C54.2565 35.5184 54.5306 35.6323 54.8514 35.6323C55.1722 35.6323 55.4463 35.5184 55.6733 35.2914C55.9007 35.064 56.0142 34.7903 56.0142 34.4695C56.0142 34.1574 55.9007 33.8881 55.6733 33.6607C55.4463 33.4337 55.1722 33.3203 54.8514 33.3203C54.5306 33.3203 54.2565 33.4337 54.0295 33.6607C53.8021 33.8881 53.6886 34.1574 53.6886 34.4695Z"
        fill="#112130"
      />
      <path
        d="M53.9559 41.0387C53.6975 40.803 53.5683 40.4975 53.5683 40.123L53.5818 40.0697C53.6259 39.731 53.773 39.446 54.0226 39.2142C54.2719 38.9825 54.5704 38.8668 54.9179 38.8668C55.4879 38.8668 55.9606 39.1789 56.3347 39.8026L57.8449 38.3989C57.6132 37.9179 57.219 37.5259 56.6621 37.2226C56.1051 36.9201 55.5237 36.7686 54.9179 36.7686C54.3212 36.7686 53.7664 36.9135 53.254 37.2029C52.7416 37.4923 52.3273 37.8869 52.0109 38.3858C51.6949 38.8847 51.5185 39.4329 51.4832 40.0296L51.4696 40.1501C51.4696 40.5686 51.5635 40.9829 51.7503 41.3927H50.962H50.8014H49.8394C49.6163 41.3927 49.4203 41.3194 49.251 41.1723C49.0816 41.0252 48.9751 40.8449 48.9306 40.6311V37.8642H46.832V40.6175C46.832 40.8314 46.7565 41.0143 46.605 41.1658C46.4531 41.3172 46.2707 41.3927 46.0568 41.3927H44.9477H44.5998C44.3593 41.3927 44.1498 41.3041 43.9717 41.1256C43.7932 40.9475 43.7046 40.738 43.7046 40.4975V36.7952H41.6326V42.9833C41.6326 43.518 41.4702 43.9078 41.145 44.1531C40.8198 44.3979 40.314 44.5869 39.6278 44.7209L40.3899 46.6855C41.3877 46.4983 42.1629 46.1308 42.7155 45.583C43.2677 45.0352 43.5885 44.3333 43.678 43.4778L43.691 43.3307C44.0027 43.4294 44.3061 43.4778 44.5998 43.4778H44.9477H46.2973C46.9298 43.4778 47.5002 43.2687 48.0079 42.8497C48.5605 43.2687 49.1711 43.4778 49.8394 43.4778H50.8014H50.9485H58.5132V41.3927H54.9179C54.5346 41.3927 54.2138 41.2749 53.9559 41.0387Z"
        fill="#112130"
      />
      <path
        d="M65.45 41.0786C65.1916 40.8691 65.0629 40.5819 65.0629 40.2161V40.1629C65.0803 39.8067 65.2204 39.5012 65.4836 39.2476C65.7464 38.9935 66.0602 38.8665 66.426 38.8665C66.8175 38.8665 67.1676 38.9691 67.4749 39.1738C67.7826 39.379 68.0118 39.633 68.1632 39.9359L69.6337 38.9067C69.357 38.2118 68.9493 37.6863 68.4107 37.3297C67.8712 36.9731 67.2095 36.795 66.426 36.795C65.811 36.795 65.2405 36.9469 64.715 37.2494C64.1895 37.5523 63.7704 37.9621 63.4588 38.4789C63.1467 38.9957 62.9909 39.5662 62.9909 40.19V40.2432C62.9909 40.5906 63.0398 40.8936 63.138 41.152C63.2357 41.4108 63.392 41.6867 63.6055 41.9804L63.512 42.0476C63.1559 42.2794 62.8791 42.602 62.6836 43.0166C62.4872 43.4309 62.3894 43.8787 62.3894 44.3597C62.3894 44.8944 62.5208 45.3867 62.784 45.8363C63.0463 46.2863 63.4029 46.6429 63.8529 46.9057C64.303 47.1685 64.7997 47.3003 65.3431 47.3003H68.8049V45.2283H65.3431C65.0934 45.2283 64.8844 45.1436 64.715 44.9743C64.5456 44.8053 64.461 44.6002 64.461 44.3597C64.461 44.1192 64.5456 43.9119 64.715 43.7381C64.8844 43.5644 65.0934 43.4776 65.3431 43.4776H70.0078V41.3925H66.426C66.0336 41.3925 65.7084 41.2881 65.45 41.0786Z"
        fill="#112130"
      />
      <path
        d="M95.4622 33.6607C95.2352 33.8881 95.1213 34.1574 95.1213 34.4695C95.1213 34.7899 95.2352 35.064 95.4622 35.2914C95.6891 35.5183 95.9633 35.6318 96.2841 35.6318C96.6049 35.6318 96.879 35.5183 97.106 35.2914C97.3334 35.064 97.4469 34.7899 97.4469 34.4695C97.4469 34.1574 97.3334 33.8881 97.106 33.6607C96.879 33.4337 96.6049 33.3198 96.2841 33.3198C95.9633 33.3198 95.6891 33.4337 95.4622 33.6607Z"
        fill="#112130"
      />
      <path
        d="M98.3492 33.6607C98.1222 33.8881 98.0083 34.1574 98.0083 34.4695C98.0083 34.7899 98.1222 35.064 98.3492 35.2914C98.5762 35.5183 98.8503 35.6318 99.1711 35.6318C99.4919 35.6318 99.766 35.5183 99.993 35.2914C100.22 35.064 100.334 34.7899 100.334 34.4695C100.334 34.1574 100.22 33.8881 99.993 33.6607C99.766 33.4337 99.4919 33.3198 99.1711 33.3198C98.8503 33.3198 98.5762 33.4337 98.3492 33.6607Z"
        fill="#112130"
      />
      <path
        d="M98.85 41.1795C98.85 41.2419 98.8299 41.293 98.7897 41.3331C98.75 41.3733 98.7029 41.3934 98.6492 41.3934H97.6872C97.3305 41.3934 97.0233 41.2864 96.7649 41.0726C96.5065 40.8587 96.3773 40.5824 96.3773 40.2437V40.1992C96.3773 39.8757 96.4763 39.5523 96.6894 39.3087C96.9626 38.9966 97.2952 38.8404 97.6872 38.8404C98.008 38.8404 98.2817 38.956 98.5091 39.1883C98.7365 39.42 98.85 39.6915 98.85 40.0032V41.1795ZM90.2425 41.0459C90.2425 41.1441 90.2115 41.2262 90.1491 41.293C90.0866 41.3598 90.0063 41.3934 89.9086 41.3934H78.0667V39.5444V39.1088V38.8914H88.7754C89.0225 38.915 89.2512 38.9831 89.4599 39.0992C89.6742 39.2184 89.8566 39.3951 89.9863 39.6034C90.1574 39.8775 90.2425 40.1804 90.2425 40.5112V41.0459ZM106.869 41.0459C106.869 41.135 106.836 41.2149 106.769 41.2864C106.702 41.3576 106.62 41.3934 106.522 41.3934H105.987H105.934H105.761C105.59 41.3934 105.416 41.3515 105.275 41.2533C105.046 41.0935 104.904 40.8862 104.851 40.6313V34.1224H102.753V40.6077C102.753 40.774 102.709 40.9421 102.607 41.0734C102.441 41.2869 102.231 41.3934 101.977 41.3934H101.804H101.697H100.761C100.868 41.2419 100.922 41.0416 100.922 40.7919V40.0032C100.922 39.4152 100.774 38.8718 100.481 38.3725C100.186 37.8736 99.7923 37.4794 99.2978 37.19C98.8033 36.9006 98.262 36.7553 97.6736 36.7553C97.0857 36.7553 96.5357 36.9024 96.0233 37.1966C95.5108 37.4903 95.101 37.8849 94.7933 38.3794C94.486 38.874 94.3323 39.4152 94.3323 40.0032V40.1638C94.3323 40.6361 94.4083 41.0459 94.5597 41.3934H93.7042H93.4371H92.3145V40.5112C92.3145 39.7985 92.1407 39.1568 91.7933 38.5868C91.4721 38.0342 91.0199 37.5999 90.4367 37.2834C89.9138 37.0002 89.359 36.8509 88.7754 36.8212H78.0667V36.5244V34.1224H75.9952V41.3934H74.7656H74.4985H74.1776C74.0886 41.3934 74.0083 41.3576 73.9371 41.2864C73.8656 41.2149 73.8302 41.135 73.8302 41.0459V34.1359H71.7451V41.0459C71.7451 41.4824 71.8542 41.8879 72.0725 42.262C72.2907 42.636 72.5871 42.9329 72.9612 43.1507C73.3357 43.3693 73.7407 43.478 74.1776 43.478H74.4985H74.7656H93.4371H93.7042H101.697H101.804H102.218C102.851 43.478 103.421 43.269 103.929 42.8499C104.481 43.269 105.092 43.478 105.76 43.478H105.934H105.974H106.522C106.958 43.478 107.364 43.3693 107.738 43.1507C108.112 42.9329 108.408 42.636 108.627 42.262C108.845 41.8879 108.954 41.4824 108.954 41.0459V34.1224H106.869V41.0459Z"
        fill="#112130"
      />
      <path
        d="M121.738 18.0362C121.738 17.4072 122.249 16.8956 122.878 16.8956C123.507 16.8956 124.019 17.4072 124.019 18.0362C124.019 18.6652 123.507 19.1763 122.878 19.1763C122.249 19.1763 121.738 18.6652 121.738 18.0362ZM125.467 19.642C125.758 19.175 125.929 18.6259 125.929 18.0362C125.929 16.3544 124.56 14.9856 122.878 14.9856C121.196 14.9856 119.828 16.3544 119.828 18.0362C119.828 19.718 121.196 21.0863 122.878 21.0863C123.273 21.0863 123.649 21.0082 123.995 20.8711L129.172 26.0483V40.2515C129.172 40.7788 129.599 41.2065 130.127 41.2065C130.654 41.2065 131.082 40.7788 131.082 40.2515V25.6528C131.082 25.3997 130.981 25.1566 130.802 24.9776L125.467 19.642Z"
        fill="#34C1B9"
      />
      <path
        d="M147.992 19.1767C147.363 19.1767 146.852 18.6652 146.852 18.0366C146.852 17.4076 147.363 16.8956 147.992 16.8956C148.621 16.8956 149.133 17.4076 149.133 18.0366C149.133 18.6652 148.621 19.1767 147.992 19.1767ZM147.992 14.986C146.31 14.986 144.942 16.3548 144.942 18.0366C144.942 18.5621 145.075 19.0571 145.311 19.4892L139.822 24.978C139.643 25.157 139.543 25.3997 139.543 25.6533V40.252C139.543 40.7792 139.97 41.2065 140.498 41.2065C141.025 41.2065 141.452 40.7792 141.452 40.252V26.0483L146.704 20.7969C147.096 20.9807 147.531 21.0863 147.992 21.0863C149.674 21.0863 151.042 19.7184 151.042 18.0366C151.042 16.3548 149.674 14.986 147.992 14.986Z"
        fill="#34C1B9"
      />
      <path
        d="M135.313 1.90974C135.942 1.90974 136.453 2.42131 136.453 3.05028C136.453 3.67925 135.942 4.19081 135.313 4.19081C134.684 4.19081 134.172 3.67925 134.172 3.05028C134.172 2.42131 134.684 1.90974 135.313 1.90974ZM147.998 10.4583C148.379 10.0938 148.393 9.4893 148.029 9.10781C147.665 8.72633 147.06 8.7128 146.679 9.07639L136.268 19.0152V13.8018L142.898 7.47274C143.279 7.10872 143.293 6.50375 142.929 6.12226C142.565 5.74077 141.961 5.72724 141.579 6.09084L136.268 11.1615V5.94505C137.482 5.54305 138.363 4.39858 138.363 3.05028C138.363 1.3685 136.994 0.00012207 135.313 0.00012207C133.631 0.00012207 132.262 1.3685 132.262 3.05028C132.262 4.39858 133.142 5.54305 134.358 5.94505V11.1615L129.046 6.09084C128.664 5.72724 128.06 5.74121 127.695 6.12226C127.331 6.50375 127.346 7.10872 127.727 7.47274L134.358 13.8018V19.0152L123.946 9.07639C123.564 8.7128 122.96 8.72589 122.596 9.10781C122.232 9.4893 122.246 10.0938 122.627 10.4583L134.358 21.6554V45.3614C134.358 45.8887 134.785 46.3164 135.313 46.3164C135.84 46.3164 136.268 45.8887 136.268 45.3614V21.6554L147.998 10.4583Z"
        fill="#112130"
      />
    </svg>